<svg xmlns="http://www.w3.org/2000/svg" width="800" height="500" viewBox="0 0 800 500">
  <!-- 背景 -->
  <rect width="800" height="500" fill="#f8f9fa" />
  
  <!-- 标题 -->
  <text x="400" y="40" font-family="Arial" font-size="24" text-anchor="middle" font-weight="bold">Docker容器化执行环境</text>
  
  <!-- Docker Host 外框 -->
  <rect x="100" y="80" width="600" height="380" rx="10" ry="10" fill="#f5f5f5" stroke="#263238" stroke-width="2" />
  <text x="400" y="110" font-family="Arial" font-size="20" text-anchor="middle" font-weight="bold">Docker Host</text>
  
  <!-- 容器1 -->
  <rect x="150" y="140" width="140" height="100" rx="5" ry="5" fill="#e3f2fd" stroke="#1565c0" stroke-width="2" />
  <text x="220" y="170" font-family="Arial" font-size="16" text-anchor="middle" font-weight="bold">Container 1</text>
  <text x="220" y="200" font-family="Arial" font-size="14" text-anchor="middle">(Java Code)</text>
  
  <!-- 容器2 -->
  <rect x="330" y="140" width="140" height="100" rx="5" ry="5" fill="#e8f5e9" stroke="#2e7d32" stroke-width="2" />
  <text x="400" y="170" font-family="Arial" font-size="16" text-anchor="middle" font-weight="bold">Container 2</text>
  <text x="400" y="200" font-family="Arial" font-size="14" text-anchor="middle">(Python Code)</text>
  
  <!-- 容器3 -->
  <rect x="510" y="140" width="140" height="100" rx="5" ry="5" fill="#fff3e0" stroke="#e65100" stroke-width="2" />
  <text x="580" y="170" font-family="Arial" font-size="16" text-anchor="middle" font-weight="bold">Container 3</text>
  <text x="580" y="200" font-family="Arial" font-size="14" text-anchor="middle">(C++ Code)</text>
  
  <!-- 资源限制 -->
  <rect x="150" y="270" width="500" height="60" rx="5" ry="5" fill="#e0f7fa" stroke="#006064" stroke-width="2" />
  <text x="400" y="305" font-family="Arial" font-size="16" text-anchor="middle" font-weight="bold">Resource Limits (CPU, Memory, Time)</text>
  
  <!-- 安全约束 -->
  <rect x="150" y="360" width="500" height="60" rx="5" ry="5" fill="#f3e5f5" stroke="#6a1b9a" stroke-width="2" />
  <text x="400" y="395" font-family="Arial" font-size="16" text-anchor="middle" font-weight="bold">Security Constraints</text>
  
  <!-- Docker Logo -->
  <svg x="650" y="80" width="40" height="40" viewBox="0 0 24 24">
    <path d="M13.983 11.078h2.119a.186.186 0 00.186-.185V9.006a.186.186 0 00-.186-.186h-2.119a.185.185 0 00-.185.185v1.888c0 .102.083.185.185.185m-2.954-5.43h2.118a.186.186 0 00.186-.186V3.574a.186.186 0 00-.186-.185h-2.118a.185.185 0 00-.185.185v1.888c0 .102.082.185.185.185m0 2.716h2.118a.187.187 0 00.186-.186V6.29a.186.186 0 00-.186-.185h-2.118a.185.185 0 00-.185.185v1.887c0 .102.082.185.185.186m-2.93 0h2.12a.186.186 0 00.184-.186V6.29a.185.185 0 00-.185-.185H8.1a.185.185 0 00-.185.185v1.887c0 .102.083.185.185.186m-2.964 0h2.119a.186.186 0 00.185-.186V6.29a.185.185 0 00-.185-.185H5.136a.186.186 0 00-.186.185v1.887c0 .102.084.185.186.186m5.893 2.715h2.118a.186.186 0 00.186-.185V9.006a.186.186 0 00-.186-.186h-2.118a.185.185 0 00-.185.185v1.888c0 .102.082.185.185.185m-2.93 0h2.12a.185.185 0 00.184-.185V9.006a.185.185 0 00-.184-.186h-2.12a.185.185 0 00-.184.185v1.888c0 .102.083.185.185.185m-2.964 0h2.119a.185.185 0 00.185-.185V9.006a.185.185 0 00-.184-.186h-2.12a.186.186 0 00-.186.186v1.887c0 .102.084.185.186.185m-2.92 0h2.12a.185.185 0 00.184-.185V9.006a.185.185 0 00-.184-.186h-2.12a.185.185 0 00-.184.185v1.888c0 .102.082.185.185.185M23.763 9.89c-.065-.051-.672-.51-1.954-.51-.338.001-.676.03-1.01.087-.248-1.7-1.653-2.53-1.716-2.566l-.344-.199-.226.327c-.284.438-.49.922-.612 1.43-.23.97-.09 1.882.403 2.661-.595.332-1.55.413-1.744.42H.751a.751.751 0 00-.75.748 11.376 11.376 0 00.692 4.062c.545 1.428 1.355 2.48 2.41 3.124 1.18.723 3.1 1.137 5.275 1.137.983.003 1.963-.086 2.93-.266a12.248 12.248 0 003.823-1.389c.98-.567 1.86-1.288 2.61-2.136 1.252-1.418 1.998-2.997 2.553-4.4h.221c1.372 0 2.215-.549 2.68-1.009.309-.293.55-.65.707-1.046l.098-.288z" fill="#0073ec"/>
  </svg>
  
  <!-- 图例 -->
  <rect x="600" y="20" width="180" height="50" fill="#ffffff" stroke="#bdbdbd" stroke-width="1" />
  <text x="690" y="40" font-family="Arial" font-size="14" text-anchor="middle" font-weight="bold">隔离执行环境</text>
  
  <rect x="620" y="55" width="20" height="10" fill="#e3f2fd" stroke="#1565c0" stroke-width="1" />
  <text x="690" y="65" font-family="Arial" font-size="12" text-anchor="middle">独立容器</text>
</svg>